<?xml version="1.0" encoding="utf-8"?>
<!-- Generator: Adobe Illustrator 24.3.0, SVG Export Plug-In . SVG Version: 6.00 Build 0)  -->
<svg version="1.1" id="Layer_1" xmlns="http://www.w3.org/2000/svg" xmlns:xlink="http://www.w3.org/1999/xlink" x="0px" y="0px"
	 viewBox="0 0 272.7 65.8" style="enable-background:new 0 0 272.7 65.8;" xml:space="preserve">
<style type="text/css">
	.st0{fill:#FFFFFF;}
	.st1{fill:#DADADA;}
	.st2{fill:none;stroke:#DADADA;stroke-miterlimit:10;}
</style>
<g>
	<g>
		<g>
			<path d="M79.69,30.14l12,19.86V30.14h5.64v28.48h-5.85L79.31,38.38v20.24h-5.64V30.14H79.69z"/>
			<path d="M102.84,44.02c0.26-2.01,0.68-3.07,1.49-4.06c1.49-1.75,4.1-2.69,7.52-2.69c4.27,0,7.13,1.28,8.28,3.72
				c0.55,1.07,0.77,2.43,0.77,4.53v8.71c0,2.48,0.09,3.12,0.68,4.4h-5.04l-0.6-1.92c-2.22,1.71-4.27,2.48-6.66,2.48
				c-4.23,0-7.69-2.86-7.69-6.36c0-2.31,1.37-4.27,3.89-5.47c1.54-0.77,3.67-1.28,6.88-1.67c2.39-0.26,3.25-0.81,3.25-2.09
				c0-1.58-1.54-2.69-3.8-2.69c-2.43,0-3.93,1.11-4.1,3.12H102.84z M115.82,47.69c-0.98,0.64-1.49,0.81-3.29,1.24
				c-4.27,1.02-5.59,1.88-5.59,3.59c0,1.49,1.45,2.52,3.63,2.52c1.54,0,2.95-0.43,3.97-1.24c0.94-0.73,1.28-1.58,1.28-3.25V47.69z"
				/>
		</g>
		<g>
			<path d="M147.77,44.36c-0.09-1.37-0.3-1.92-0.94-2.6c-0.81-0.85-2.22-1.32-3.93-1.32c-2.78,0-4.61,1.11-4.61,2.82
				c0,0.73,0.43,1.45,1.15,1.84c0.73,0.47,1.79,0.77,4.87,1.45c5.47,1.24,7.56,2.99,7.56,6.28c0,3.97-3.2,6.36-8.5,6.36
				c-5.68,0-8.97-2.65-9.31-7.56h3.33c0.17,3.2,2.18,4.87,6.02,4.87c3.12,0,5.12-1.37,5.12-3.46c0-0.85-0.38-1.62-1.07-2.09
				c-0.85-0.56-1.32-0.73-5.77-1.79c-2.48-0.6-4.1-1.2-5.04-1.92c-1.07-0.77-1.71-2.18-1.71-3.67c0-3.59,3.2-5.85,8.2-5.85
				c4.78,0,7.3,2.13,7.94,6.66H147.77z"/>
			<path d="M154.9,65.33V38.25h3.33v2.73c1.79-2.26,3.89-3.29,6.7-3.29c5.17,0,8.63,4.31,8.63,10.85c0,6.41-3.46,10.63-8.71,10.63
				c-2.78,0-4.83-1.07-6.62-3.46v9.61H154.9z M159.47,42.95c-0.9,1.28-1.32,2.9-1.32,5.21c0,2.82,0.47,4.61,1.62,6.06
				c1.11,1.45,2.78,2.26,4.61,2.26c3.67,0,5.85-3.03,5.85-8.07c0-5.08-2.09-8.03-5.76-8.03C162.42,40.39,160.63,41.29,159.47,42.95z
				"/>
			<path d="M180.7,58.62h-3.37V30.14h3.37V58.62z"/>
			<path d="M203.16,58.75c-0.77,0.17-1.2,0.26-1.79,0.26c-1.37,0-2.6-0.64-2.95-1.58c-0.17-0.38-0.26-0.73-0.3-1.84
				c-1.67,2.39-4.1,3.59-7.34,3.59c-4.23,0-6.92-2.18-6.92-5.64c0-2.18,0.98-3.89,2.86-5c1.45-0.9,2.09-1.07,8.11-2.09
				c2.09-0.34,2.78-0.94,2.78-2.39c0-2.48-1.37-3.63-4.27-3.63c-2.35,0-4.23,0.77-4.78,2.01c-0.26,0.55-0.34,1.07-0.38,2.26h-3.16
				c0.09-2.01,0.34-3.03,1.11-4.14c1.28-1.84,3.89-2.86,7.22-2.86c2.95,0,5.38,0.85,6.49,2.31c0.77,0.94,1.02,2.01,1.02,4.01v9.61
				c0,2.22,0.34,2.82,1.54,2.82c0.21,0,0.38-0.04,0.77-0.13V58.75z M197.53,47.86c-1.11,0.51-1.71,0.68-3.8,1.07
				c-3.37,0.68-4.57,1.11-5.55,1.96c-0.6,0.51-0.98,1.41-0.98,2.31c0,2.01,1.62,3.29,4.19,3.29c3.63,0,6.15-2.09,6.15-5.12V47.86z
				 M197.06,29.59l-3.63,5h-2.05l1.75-5H197.06z"/>
			<path d="M213.59,38.25v2.69h-4.06v12.43c0,2.26,0.43,2.86,2.05,2.86c0.43,0,0.73-0.04,1.41-0.26v2.78
				c-0.94,0.21-1.45,0.3-2.13,0.3c-1.71,0-3.2-0.56-3.89-1.37c-0.56-0.73-0.77-1.62-0.77-3.33V40.94h-2.99v-2.69h2.99v-6.58h3.33
				v6.58H213.59z"/>
			<path d="M219.65,46.84l9.22-8.58h4.31l-7.69,7.17l9.14,13.19h-4.1l-7.52-11.23l-3.37,3.12v8.11h-3.33V30.14h3.33V46.84z"/>
			<path d="M243.31,54.69l6.02-16.44h3.54l-9.01,22.85c-1.41,3.59-2.78,4.7-5.59,4.7c-1.07,0-1.79-0.13-3.03-0.6v-3.03
				c0.85,0.51,1.54,0.68,2.52,0.68c1.41,0,2.09-0.51,2.73-2.09l1.15-2.82l-8.5-19.69h3.63L243.31,54.69z"/>
		</g>
		<g>
			<path d="M258.21,42.1h-1.54V31.48h-3.93v-1.35h9.33v1.35h-3.86V42.1z"/>
			<path d="M263.25,30.14h4.88c1.17,0,1.69,0.07,2.3,0.3c1.11,0.45,1.79,1.47,1.79,2.71c0,1.27-0.68,2.17-2.01,2.6
				c0.81,0.23,1.18,0.41,1.58,0.77c0.59,0.54,0.91,1.33,0.91,2.21c0,1.26-0.68,2.42-1.74,2.98c-0.48,0.27-1.33,0.39-2.46,0.39h-5.26
				V30.14z M267.87,35.28c0.65,0,1.29-0.09,1.62-0.23c0.74-0.34,1.2-1.02,1.2-1.81c0-0.65-0.34-1.26-0.82-1.51
				c-0.41-0.2-0.74-0.25-1.7-0.25h-3.39v3.8H267.87z M268.23,40.76c1.17,0,1.51-0.04,1.92-0.23c0.65-0.32,1.02-0.99,1.02-1.79
				c0-0.84-0.4-1.52-1.08-1.87c-0.41-0.22-0.95-0.29-1.97-0.29h-3.35v4.18H268.23z"/>
		</g>
	</g>
	<g>
		<polygon points="22.85,18.84 0,58.61 10.88,58.61 33.73,18.84 		"/>
		<polygon points="47.42,0 13.74,58.61 24.64,58.61 58.3,0 		"/>
		<polygon points="55.85,9.28 27.5,58.61 38.38,58.61 66.72,9.28 		"/>
	</g>
</g>
</svg>
